<svg width="680" height="1280" viewBox="0 0 680 1280" xmlns="http://www.w3.org/2000/svg" style="background:white;font-family:Arial,sans-serif">
<defs>
  <marker id="arrow" viewBox="0 0 10 10" refX="8" refY="5" markerWidth="6" markerHeight="6" orient="auto-start-reverse">
    <path d="M2 1L8 5L2 9" fill="none" stroke="#888780" stroke-width="1.5" stroke-linecap="round" stroke-linejoin="round"/>
  </marker>
  <marker id="arrow-red" viewBox="0 0 10 10" refX="8" refY="5" markerWidth="6" markerHeight="6" orient="auto-start-reverse">
    <path d="M2 1L8 5L2 9" fill="none" stroke="#A32D2D" stroke-width="1.5" stroke-linecap="round" stroke-linejoin="round"/>
  </marker>
  <marker id="arrow-green" viewBox="0 0 10 10" refX="8" refY="5" markerWidth="6" markerHeight="6" orient="auto-start-reverse">
    <path d="M2 1L8 5L2 9" fill="none" stroke="#3B6D11" stroke-width="1.5" stroke-linecap="round" stroke-linejoin="round"/>
  </marker>
  <marker id="arrow-blue" viewBox="0 0 10 10" refX="8" refY="5" markerWidth="6" markerHeight="6" orient="auto-start-reverse">
    <path d="M2 1L8 5L2 9" fill="none" stroke="#185FA5" stroke-width="1.5" stroke-linecap="round" stroke-linejoin="round"/>
  </marker>
</defs>

<rect width="680" height="1280" fill="white"/>

<!-- ─────────────────────────────────────── -->
<!--  SALESFORCE CONTAINER                  -->
<!-- ─────────────────────────────────────── -->
<rect x="30" y="24" width="620" height="318" rx="14" fill="#E6F1FB" stroke="#185FA5" stroke-width="0.8"/>
<text x="340" y="48" text-anchor="middle" font-size="14" font-weight="700" fill="#0C447C">Salesforce</text>

<!-- Step 1: Case Created -->
<rect x="200" y="62" width="280" height="48" rx="8" fill="#B5D4F4" stroke="#185FA5" stroke-width="0.5"/>
<text x="340" y="82" text-anchor="middle" font-size="14" font-weight="600" fill="#0C447C">Case created</text>
<text x="340" y="100" text-anchor="middle" font-size="12" fill="#185FA5">After insert trigger</text>

<line x1="340" y1="110" x2="340" y2="144" stroke="#185FA5" stroke-width="1.5" marker-end="url(#arrow-blue)"/>

<!-- Step 2: Record Triggered Flow -->
<rect x="180" y="146" width="320" height="48" rx="8" fill="#B5D4F4" stroke="#185FA5" stroke-width="0.5"/>
<text x="340" y="166" text-anchor="middle" font-size="14" font-weight="600" fill="#0C447C">Record-triggered flow</text>
<text x="340" y="184" text-anchor="middle" font-size="12" fill="#185FA5">Case_RAG_Answer_On_Create</text>

<line x1="340" y1="194" x2="340" y2="228" stroke="#185FA5" stroke-width="1.5" marker-end="url(#arrow-blue)"/>

<!-- Step 3: Invocable Method -->
<rect x="160" y="230" width="360" height="56" rx="8" fill="#B5D4F4" stroke="#185FA5" stroke-width="0.5"/>
<text x="340" y="250" text-anchor="middle" font-size="14" font-weight="600" fill="#0C447C">Call_RAG_Gateway_Queueable</text>
<text x="340" y="268" text-anchor="middle" font-size="12" fill="#185FA5">InvocableMethod → System.enqueueJob()</text>

<line x1="340" y1="286" x2="340" y2="316" stroke="#185FA5" stroke-width="1.5" marker-end="url(#arrow-blue)"/>

<!-- Step 4: Async Apex Queueable -->
<rect x="160" y="318" width="360" height="48" rx="8" fill="#85B7EB" stroke="#185FA5" stroke-width="0.5"/>
<text x="340" y="338" text-anchor="middle" font-size="14" font-weight="600" fill="#042C53">RAGGatewayQueueable.cls</text>
<text x="340" y="356" text-anchor="middle" font-size="12" fill="#0C447C">Async Apex · HTTP POST callout</text>

<!-- Arrow exits Salesforce container downward -->
<line x1="340" y1="366" x2="340" y2="406" stroke="#888780" stroke-width="1.5" marker-end="url(#arrow)"/>
<text x="356" y="390" font-size="11" fill="#5F5E5A">POST /query · X-API-Key</text>

<!-- ─────────────────────────────────────── -->
<!--  FASTAPI GATEWAY                       -->
<!-- ─────────────────────────────────────── -->
<rect x="80" y="408" width="520" height="56" rx="8" fill="#EEEDFE" stroke="#534AB7" stroke-width="0.5"/>
<text x="340" y="428" text-anchor="middle" font-size="14" font-weight="600" fill="#3C3489">FastAPI AI gateway</text>
<text x="340" y="448" text-anchor="middle" font-size="12" fill="#534AB7">Auth (HMAC) · Rate limiting · Routing</text>

<line x1="340" y1="464" x2="340" y2="498" stroke="#888780" stroke-width="1.5" marker-end="url(#arrow)"/>

<!-- ─────────────────────────────────────── -->
<!--  LANGGRAPH CONTAINER                   -->
<!-- ─────────────────────────────────────── -->
<rect x="30" y="498" width="620" height="582" rx="14" fill="#F1EFE8" stroke="#5F5E5A" stroke-width="0.5"/>
<text x="340" y="522" text-anchor="middle" font-size="14" font-weight="700" fill="#444441">LangGraph agent — StateGraph orchestrator</text>

<!-- Node 1: Input Guardrails -->
<rect x="200" y="536" width="280" height="56" rx="8" fill="#FAECE7" stroke="#993C1D" stroke-width="0.5"/>
<text x="340" y="556" text-anchor="middle" font-size="14" font-weight="600" fill="#712B13">Input guardrails</text>
<text x="340" y="574" text-anchor="middle" font-size="12" fill="#993C1D">Injection · PII redaction · Toxicity</text>

<!-- blocked → END right -->
<line x1="480" y1="564" x2="552" y2="564" stroke="#A32D2D" stroke-width="1.5" marker-end="url(#arrow-red)"/>
<text x="484" y="557" font-size="11" fill="#A32D2D">blocked</text>
<rect x="552" y="548" width="52" height="32" rx="6" fill="#FCEBEB" stroke="#A32D2D" stroke-width="0.5"/>
<text x="578" y="564" text-anchor="middle" dominant-baseline="central" font-size="12" font-weight="600" fill="#791F1F">END</text>

<line x1="340" y1="592" x2="340" y2="624" stroke="#888780" stroke-width="1.5" marker-end="url(#arrow)"/>
<text x="348" y="612" font-size="11" fill="#3B6D11">safe</text>

<!-- Node 2: Redis Cache -->
<rect x="200" y="626" width="280" height="56" rx="8" fill="#E1F5EE" stroke="#0F6E56" stroke-width="0.5"/>
<text x="340" y="646" text-anchor="middle" font-size="14" font-weight="600" fill="#085041">Redis cache</text>
<text x="340" y="664" text-anchor="middle" font-size="12" fill="#0F6E56">Semantic + exact key cache</text>

<!-- hit → END right -->
<line x1="480" y1="654" x2="552" y2="654" stroke="#3B6D11" stroke-width="1.5" marker-end="url(#arrow-green)"/>
<text x="490" y="647" font-size="11" fill="#3B6D11">hit</text>
<rect x="552" y="638" width="52" height="32" rx="6" fill="#EAF3DE" stroke="#3B6D11" stroke-width="0.5"/>
<text x="578" y="654" text-anchor="middle" dominant-baseline="central" font-size="12" font-weight="600" fill="#27500A">END</text>

<line x1="340" y1="682" x2="340" y2="714" stroke="#888780" stroke-width="1.5" marker-end="url(#arrow)"/>
<text x="348" y="702" font-size="11" fill="#5F5E5A">miss</text>

<!-- Node 3: Pinecone Query -->
<rect x="200" y="716" width="280" height="56" rx="8" fill="#EEEDFE" stroke="#534AB7" stroke-width="0.5"/>
<text x="340" y="736" text-anchor="middle" font-size="14" font-weight="600" fill="#3C3489">Pinecone query</text>
<text x="340" y="754" text-anchor="middle" font-size="12" fill="#534AB7">Embed → namespace → top-K chunks</text>

<line x1="340" y1="772" x2="340" y2="804" stroke="#888780" stroke-width="1.5" marker-end="url(#arrow)"/>

<!-- Node 4: LLM Generation -->
<rect x="200" y="806" width="280" height="56" rx="8" fill="#FAEEDA" stroke="#854F0B" stroke-width="0.5"/>
<text x="340" y="826" text-anchor="middle" font-size="14" font-weight="600" fill="#633806">LLM generation</text>
<text x="340" y="844" text-anchor="middle" font-size="12" fill="#854F0B">LangChain · context injection</text>

<line x1="340" y1="862" x2="340" y2="894" stroke="#888780" stroke-width="1.5" marker-end="url(#arrow)"/>

<!-- Node 5: Output Guardrails -->
<rect x="200" y="896" width="280" height="56" rx="8" fill="#FAECE7" stroke="#993C1D" stroke-width="0.5"/>
<text x="340" y="916" text-anchor="middle" font-size="14" font-weight="600" fill="#712B13">Output guardrails</text>
<text x="340" y="934" text-anchor="middle" font-size="12" fill="#993C1D">Safety · PII leak · Hallucination check</text>

<line x1="340" y1="952" x2="340" y2="984" stroke="#888780" stroke-width="1.5" marker-end="url(#arrow)"/>

<!-- Node 6: Cache Write -->
<rect x="200" y="986" width="280" height="56" rx="8" fill="#E1F5EE" stroke="#0F6E56" stroke-width="0.5"/>
<text x="340" y="1006" text-anchor="middle" font-size="14" font-weight="600" fill="#085041">Cache write</text>
<text x="340" y="1024" text-anchor="middle" font-size="12" fill="#0F6E56">Store answer in Redis for next hit</text>

<!-- Exit LangGraph -->
<line x1="340" y1="1080" x2="340" y2="1114" stroke="#888780" stroke-width="1.5" marker-end="url(#arrow)"/>
<text x="356" y="1100" font-size="11" fill="#5F5E5A">JSON response</text>

<!-- ─────────────────────────────────────── -->
<!--  RESPONSE BOX                          -->
<!-- ─────────────────────────────────────── -->
<rect x="80" y="1116" width="520" height="72" rx="8" fill="#E6F1FB" stroke="#185FA5" stroke-width="0.5"/>
<text x="340" y="1138" text-anchor="middle" font-size="14" font-weight="600" fill="#0C447C">Response → Salesforce case updated</text>
<text x="340" y="1158" text-anchor="middle" font-size="12" fill="#185FA5">answer · sources · safety_status · cache_status</text>
<text x="340" y="1174" text-anchor="middle" font-size="12" fill="#185FA5">model_used · tokens_used · latency_ms · pii_redacted</text>

<!-- ─────────────────────────────────────── -->
<!--  LEGEND                                -->
<!-- ─────────────────────────────────────── -->
<rect x="30" y="1208" width="620" height="56" rx="8" fill="#F1EFE8" stroke="#5F5E5A" stroke-width="0.5"/>
<text x="50" y="1228" font-size="12" font-weight="600" fill="#444441">Legend</text>
<line x1="110" y1="1224" x2="148" y2="1224" stroke="#A32D2D" stroke-width="1.5" marker-end="url(#arrow-red)"/>
<text x="154" y="1228" font-size="11" fill="#A32D2D">Blocked path</text>
<line x1="248" y1="1224" x2="286" y2="1224" stroke="#3B6D11" stroke-width="1.5" marker-end="url(#arrow-green)"/>
<text x="292" y="1228" font-size="11" fill="#3B6D11">Cache hit</text>
<line x1="366" y1="1224" x2="404" y2="1224" stroke="#888780" stroke-width="1.5" marker-end="url(#arrow)"/>
<text x="410" y="1228" font-size="11" fill="#5F5E5A">Main flow</text>
<line x1="482" y1="1224" x2="520" y2="1224" stroke="#185FA5" stroke-width="1.5" marker-end="url(#arrow-blue)"/>
<text x="526" y="1228" font-size="11" fill="#185FA5">Salesforce flow</text>
<rect x="50" y="1240" width="12" height="12" rx="2" fill="#B5D4F4" stroke="#185FA5" stroke-width="0.5"/>
<text x="68" y="1250" font-size="11" fill="#0C447C">Salesforce</text>
<rect x="150" y="1240" width="12" height="12" rx="2" fill="#FAECE7" stroke="#993C1D" stroke-width="0.5"/>
<text x="168" y="1250" font-size="11" fill="#712B13">Guardrails</text>
<rect x="248" y="1240" width="12" height="12" rx="2" fill="#E1F5EE" stroke="#0F6E56" stroke-width="0.5"/>
<text x="266" y="1250" font-size="11" fill="#085041">Cache</text>
<rect x="320" y="1240" width="12" height="12" rx="2" fill="#EEEDFE" stroke="#534AB7" stroke-width="0.5"/>
<text x="338" y="1250" font-size="11" fill="#3C3489">Retrieval / Gateway</text>
<rect x="460" y="1240" width="12" height="12" rx="2" fill="#FAEEDA" stroke="#854F0B" stroke-width="0.5"/>
<text x="478" y="1250" font-size="11" fill="#633806">LLM</text>

</svg>
